<?xml version="1.0" standalone="no"?>
<!DOCTYPE svg PUBLIC "-//W3C//DTD SVG 20010904//EN"
 "http://www.w3.org/TR/2001/REC-SVG-20010904/DTD/svg10.dtd">
<svg version="1.0" xmlns="http://www.w3.org/2000/svg"
 width="292.000000pt" height="281.000000pt" viewBox="0 0 292.000000 281.000000"
 preserveAspectRatio="xMidYMid meet">

<g transform="translate(0.000000,281.000000) scale(0.100000,-0.100000)"
fill="#ffffff" stroke="none">
<path d="M923 2705 c-202 -55 -350 -236 -354 -435 l-2 -58 -64 -17 c-208 -56
-356 -266 -340 -485 5 -81 33 -167 72 -225 31 -44 31 -46 0 -90 -39 -58 -67
-144 -72 -225 -16 -219 132 -429 340 -485 l64 -17 2 -58 c6 -289 302 -509 584
-435 89 23 156 62 224 130 l63 63 63 -63 c68 -68 135 -107 224 -130 282 -74
578 146 584 435 l2 58 64 17 c208 56 356 266 340 485 -5 81 -33 167 -72 225
-31 44 -31 46 0 90 39 58 67 144 72 225 16 219 -132 429 -340 485 l-64 17 -2
58 c-6 289 -302 509 -584 435 -89 -23 -156 -62 -224 -130 l-63 -63 -63 63
c-124 124 -294 173 -454 130z m248 -164 c67 -32 120 -81 154 -142 l30 -54 0
-905 0 -905 -30 -54 c-33 -60 -86 -109 -154 -143 -66 -32 -196 -32 -262 0 -68
34 -121 83 -154 143 -24 44 -29 66 -29 122 l-1 69 57 18 c65 20 117 50 171 98
29 27 37 42 37 68 0 74 -70 96 -136 43 -80 -64 -110 -74 -219 -74 -92 0 -104
2 -154 30 -60 33 -109 86 -143 154 -18 37 -23 63 -23 131 0 98 20 149 88 226
53 60 53 88 0 148 -68 77 -88 128 -88 226 0 68 5 94 23 131 34 68 83 121 143
154 50 28 62 30 154 30 109 0 139 -10 219 -74 66 -53 136 -31 136 43 0 26 -8
41 -37 68 -54 48 -106 78 -171 98 l-57 18 -3 45 c-8 127 79 248 216 300 63 23
170 18 233 -12z m800 0 c67 -32 120 -81 154 -142 28 -50 30 -61 31 -164 1
-163 -1 -161 122 -176 122 -14 209 -76 264 -188 18 -37 23 -63 23 -131 0 -98
-20 -149 -88 -226 -53 -60 -53 -88 0 -148 68 -77 88 -128 88 -226 0 -68 -5
-94 -23 -131 -55 -112 -142 -174 -264 -188 -86 -10 -104 -17 -114 -39 -4 -9
-8 -69 -8 -132 -1 -108 -3 -118 -31 -169 -33 -60 -86 -109 -154 -143 -66 -32
-196 -32 -262 0 -68 34 -121 83 -154 143 -29 53 -30 58 -33 216 l-4 163 81 0
c78 0 81 -1 95 -27 37 -71 110 -113 196 -113 130 0 220 90 220 220 0 130 -90
220 -220 220 -86 0 -159 -42 -196 -112 -14 -27 -17 -28 -94 -28 l-80 0 0 170
0 170 180 0 179 0 15 -27 c37 -71 110 -113 196 -113 130 0 220 90 220 220 0
130 -90 220 -220 220 -86 0 -159 -42 -196 -112 l-15 -28 -179 0 -180 0 0 170
0 170 80 0 c77 0 80 -1 94 -27 37 -71 110 -113 196 -113 130 0 220 90 220 220
0 130 -90 220 -220 220 -86 0 -159 -42 -196 -112 -14 -27 -17 -28 -94 -28
l-80 0 0 143 c0 78 5 158 10 177 25 91 107 175 208 213 63 23 170 18 233 -12z
m-29 -548 c23 -20 24 -80 1 -105 -20 -23 -80 -24 -105 -1 -23 20 -24 80 -1
105 20 23 80 24 105 1z m200 -500 c23 -20 24 -80 1 -105 -20 -23 -80 -24 -105
-1 -23 20 -24 80 -1 105 20 23 80 24 105 1z m-200 -500 c23 -20 24 -80 1 -105
-20 -23 -80 -24 -105 -1 -23 20 -24 80 -1 105 20 23 80 24 105 1z"/>
</g>
</svg>
